<svg width="14" height="12" viewBox="0 0 14 12" fill="none" xmlns="http://www.w3.org/2000/svg">
<path fill-rule="evenodd" clip-rule="evenodd" d="M7.74185 0.35664C7.50568 0.609384 7.50651 1.01828 7.7437 1.26994L11.5931 5.35411H0.939061L0.856823 5.36C0.561008 5.40276 0.333008 5.67296 0.333008 5.99991C0.333008 6.35658 0.604347 6.64571 0.939061 6.64571H11.5918L7.74366 10.7298L7.68484 10.8021C7.50831 11.0545 7.52717 11.4133 7.74189 11.6431C7.97808 11.8958 8.36181 11.8966 8.59898 11.645L13.4736 6.47209C13.587 6.35927 13.6597 6.2006 13.6658 6.0238C13.6719 5.85005 13.6126 5.67418 13.4878 5.54177L8.59894 0.354673L8.53084 0.2923C8.2932 0.105257 7.95655 0.126872 7.74185 0.35664Z" fill="#E23E3E"/>
</svg>
