<svg width="40" height="40" viewBox="0 0 40 40" fill="none" xmlns="http://www.w3.org/2000/svg">
<g clip-path="url(#clip0_376_795)">
<path fill-rule="evenodd" clip-rule="evenodd" d="M19.9958 9.76465C17.5211 9.76465 15.7213 10.897 14.5599 12.3944C13.4167 13.8682 12.8849 15.6992 12.8849 17.1842C12.8849 17.6104 12.8978 17.9269 12.9077 18.167L12.9077 18.1671C12.9097 18.2164 12.9116 18.2625 12.9132 18.3057C12.9229 18.564 12.9209 18.688 12.901 18.811C12.8559 19.0905 12.7128 19.435 12.1414 20.6943C12.1357 20.7068 12.1304 20.7195 12.1254 20.7324C11.7123 21.7948 11.8044 22.7722 12.2953 23.6005C12.7637 24.3909 13.5512 24.9729 14.4025 25.3976C16.1048 26.2468 18.3554 26.6123 19.9958 26.6123C21.6358 26.6123 23.8862 26.2468 25.5885 25.3976C26.4398 24.9729 27.2273 24.3909 27.6958 23.6006C28.1868 22.7724 28.2792 21.795 27.8663 20.7325C27.8613 20.7196 27.856 20.7069 27.8502 20.6943C27.2788 19.435 27.1358 19.0905 27.0906 18.811C27.0708 18.688 27.0688 18.564 27.0785 18.3057C27.0801 18.2625 27.082 18.2163 27.084 18.167C27.0938 17.9269 27.1068 17.6104 27.1068 17.1842C27.1068 15.6992 26.5747 13.8681 25.4314 12.3944C24.2699 10.897 22.4701 9.76465 19.9958 9.76465ZM14.3849 17.1842C14.3849 16.0148 14.8164 14.5111 15.7451 13.3137C16.6556 12.1399 18.0362 11.2646 19.9958 11.2646C21.9549 11.2646 23.3356 12.1399 24.2462 13.3138C25.1751 14.5112 25.6068 16.0149 25.6068 17.1842C25.6068 17.5773 25.5952 17.8613 25.5855 18.1003C25.5834 18.152 25.5813 18.2015 25.5795 18.2496C25.5696 18.5155 25.5643 18.7686 25.6098 19.0502C25.6944 19.5733 25.9513 20.1395 26.4652 21.2721L26.4652 21.2721L26.4752 21.2941C26.7239 21.9467 26.644 22.4334 26.4055 22.8357C26.1424 23.2795 25.6381 23.6965 24.9189 24.0553C23.4802 24.773 21.4749 25.1123 19.9958 25.1123C18.5163 25.1123 16.5107 24.773 15.0721 24.0553C14.3529 23.6965 13.8487 23.2795 13.5857 22.8357C13.3474 22.4336 13.2675 21.9469 13.5164 21.2942L13.5264 21.2721C14.0404 20.1395 14.2973 19.5733 14.3818 19.0502C14.4273 18.7686 14.4221 18.5155 14.4121 18.2496C14.4103 18.2016 14.4083 18.1523 14.4062 18.1008L14.4062 18.1003C14.3965 17.8613 14.3849 17.5773 14.3849 17.1842ZM18.245 28.013C17.9691 27.7041 17.495 27.6774 17.186 27.9533C16.8771 28.2292 16.8504 28.7034 17.1263 29.0123C18.7341 30.8122 21.275 30.7883 22.8645 29.0129C23.1407 28.7043 23.1145 28.2301 22.8059 27.9539C22.4973 27.6776 22.0232 27.7038 21.7469 28.0124C20.7478 29.1284 19.2506 29.1388 18.245 28.013Z" fill="#C1C1C1"/>
</g>
<defs>
<clipPath id="clip0_376_795">
<rect width="40" height="40" fill="white"/>
</clipPath>
</defs>
</svg>
