<svg width="40" height="40" viewBox="0 0 40 40" fill="none" xmlns="http://www.w3.org/2000/svg">
<g clip-path="url(#clip0_376_788)">
<path fill-rule="evenodd" clip-rule="evenodd" d="M19.8372 9.65039C17.0007 9.65039 14.7007 11.95 14.7 14.7864L14.7 14.7877H15.45L14.7 14.7851L14.7 14.7864C14.6911 17.6145 16.9754 19.9144 19.8038 19.924L19.8064 19.924H19.8372C22.6742 19.924 24.9736 17.6246 24.9736 14.7877C24.9736 11.9509 22.6744 9.65039 19.8372 9.65039ZM16.2 14.7877C16.2 12.7791 17.8287 11.1504 19.8372 11.1504C21.8456 11.1504 23.4736 12.7789 23.4736 14.7877C23.4736 16.7962 21.8449 18.424 19.8364 18.424H19.8076C17.8079 18.4165 16.1932 16.7902 16.2 14.7902V14.7877ZM13.75 26.787C13.75 25.9897 14.3053 25.0849 15.4419 24.3389C16.5584 23.6061 18.1244 23.1123 19.8445 23.1123C21.5556 23.1123 23.1226 23.6014 24.2421 24.3301C25.3822 25.0723 25.9391 25.9721 25.9391 26.7664C25.9391 27.1516 25.8152 27.4381 25.5916 27.6792C25.3521 27.9376 24.9676 28.1741 24.411 28.3689C23.2884 28.7618 21.6825 28.9123 19.8445 28.9123C18.0152 28.9123 16.4085 28.767 15.2825 28.3785C14.724 28.1858 14.3382 27.9512 14.0979 27.6944C13.874 27.4553 13.75 27.1709 13.75 26.787ZM19.8445 21.6123C17.8528 21.6123 15.9966 22.1805 14.6188 23.0849C13.261 23.976 12.25 25.2835 12.25 26.787C12.25 27.5535 12.5201 28.2038 13.0027 28.7194C13.4689 29.2175 14.102 29.5579 14.7932 29.7964C16.1665 30.2703 17.9821 30.4123 19.8445 30.4123C21.7184 30.4123 23.5348 30.2648 24.9065 29.7847C25.597 29.543 26.2278 29.1993 26.6916 28.6991C27.1714 28.1816 27.4391 27.5312 27.4391 26.7664C27.4391 25.26 26.4196 23.9578 25.0604 23.073C23.6806 22.1748 21.8253 21.6123 19.8445 21.6123Z" fill="#C1C1C1"/>
</g>
<defs>
<clipPath id="clip0_376_788">
<rect width="40" height="40" fill="white"/>
</clipPath>
</defs>
</svg>
