<svg width="24" height="24" viewBox="0 0 24 24" fill="none" xmlns="http://www.w3.org/2000/svg">
<g id="Icon/Arrow-Right">
<path id="Union" fill-rule="evenodd" clip-rule="evenodd" d="M12.8906 5.22816C12.6072 5.53146 12.6082 6.02214 12.8928 6.32413L17.5121 11.2251H4.72726L4.62858 11.2322C4.2736 11.2835 4 11.6078 4 12.0001C4 12.4281 4.32561 12.7751 4.72726 12.7751H17.5105L12.8928 17.6759L12.8222 17.7627C12.6104 18.0656 12.633 18.4962 12.8907 18.7719C13.1741 19.0752 13.6346 19.0762 13.9192 18.7742L19.7687 12.5667C19.9048 12.4313 19.9921 12.2409 19.9993 12.0288C20.0067 11.8203 19.9355 11.6092 19.7857 11.4503L13.9191 5.2258L13.8374 5.15096C13.5522 4.9265 13.1483 4.95244 12.8906 5.22816Z" fill="#181818"/>
</g>
</svg>
