<svg width="16" height="16" viewBox="0 0 16 16" fill="none" xmlns="http://www.w3.org/2000/svg">
<path fill-rule="evenodd" clip-rule="evenodd" d="M3.17907 0C2.20638 0 1.33952 0.15372 0.746467 0.748076C0.153361 1.34249 0 2.21135 0 3.18608C0 4.16113 0.153325 5.0301 0.746531 5.62445C1.33964 6.21871 2.20656 6.37216 3.17907 6.37216C4.15122 6.37216 5.01795 6.21869 5.61095 5.62439C6.20398 5.03005 6.35731 4.16114 6.35731 3.18608C6.35731 2.21134 6.20395 1.34254 5.61101 0.74814C5.01808 0.153743 4.15141 0 3.17907 0ZM1.37317 3.18608C1.37317 2.28787 1.53147 1.90783 1.71732 1.72158C1.90322 1.53527 2.2826 1.37656 3.17907 1.37656C4.07506 1.37656 4.45422 1.53525 4.64003 1.72151C4.82584 1.90778 4.98414 2.28788 4.98414 3.18608C4.98414 4.08478 4.82581 4.46477 4.6401 4.65089C4.45434 4.83705 4.07524 4.9956 3.17907 4.9956C2.28242 4.9956 1.9031 4.83703 1.71726 4.65083C1.53151 4.46472 1.37317 4.08479 1.37317 3.18608ZM8.70215 3.1871C8.70215 2.80697 9.00954 2.49882 9.38874 2.49882H15.3132C15.6924 2.49882 15.9998 2.80697 15.9998 3.1871C15.9998 3.56722 15.6924 3.87538 15.3132 3.87538H9.38874C9.00954 3.87538 8.70215 3.56722 8.70215 3.1871ZM12.8218 9.62767C11.8496 9.62767 10.9829 9.78114 10.3899 10.3754C9.79688 10.9698 9.64355 11.8387 9.64355 12.8138C9.64355 13.7888 9.79688 14.6577 10.3899 15.2521C10.9829 15.8464 11.8496 15.9998 12.8218 15.9998C13.794 15.9998 14.6607 15.8464 15.2537 15.2521C15.8467 14.6577 16 13.7888 16 12.8138C16 11.8387 15.8467 10.9698 15.2537 10.3754C14.6607 9.78114 13.794 9.62767 12.8218 9.62767ZM11.0167 12.8138C11.0167 11.915 11.1751 11.5351 11.3608 11.3489C11.5465 11.1628 11.9256 11.0042 12.8218 11.0042C13.718 11.0042 14.0971 11.1628 14.2828 11.3489C14.4685 11.5351 14.6269 11.915 14.6269 12.8138C14.6269 13.7125 14.4685 14.0924 14.2828 14.2786C14.0971 14.4647 13.718 14.6233 12.8218 14.6233C11.9256 14.6233 11.5465 14.4647 11.3608 14.2786C11.1751 14.0924 11.0167 13.7125 11.0167 12.8138ZM0.686587 12.1245C0.307395 12.1245 0 12.4327 0 12.8128C0 13.1929 0.307395 13.5011 0.686587 13.5011H6.61186C6.99105 13.5011 7.29844 13.1929 7.29844 12.8128C7.29844 12.4327 6.99105 12.1245 6.61186 12.1245H0.686587Z" fill="#181818"/>
</svg>
